<svg height="500" width="500" viewBox="0 0 400 400" preserveAspectRatio="xMidYMid meet" shape-rendering="geometricPrecision " text-rendering="optimizeLegibility" version="1.1" xmlns="http://www.w3.org/2000/svg" xmlns:xlink="http://www.w3.org/1999/xlink" attrs="[object Object]"><g transform="translate(200, 200)" attrs="[object Object]"><g><g><path d="M 111 -0.001 A 111 111 0 1 0 111 0 M 109 -0.001 A 109 109 0 1 0 109 0" style="stroke: gray; fill: gray; fill-rule: evenodd;" attrs="[object Object]"></path></g><g><g><g><path d="M 100 -0.001 A 100 100 0 1 0 100 0 M 100 -0.001 A 100 100 0 1 0 100 0" style="stroke: transparent; fill: transparent; fill-rule: evenodd;" attrs="[object Object]"></path></g><g><g><path d="M 0.001 -97.5 L 0.001 -102.5" style="stroke: black; fill: gray; fill-rule: evenodd;" attrs="[object Object]"></path><path d="M 22.69655878278637 -94.8214966103126 L 23.86048487421131 -99.68413746212349" style="stroke: black; fill: gray; fill-rule: evenodd;" attrs="[object Object]"></path><path d="M 44.24868858831106 -86.8809735109746 L 46.517852105660346 -91.33640804999894" style="stroke: black; fill: gray; fill-rule: evenodd;" attrs="[object Object]"></path><path d="M 63.345252024752945 -74.1190194614077 L 66.59372648756079 -77.91999481840296" style="stroke: black; fill: gray; fill-rule: evenodd;" attrs="[object Object]"></path><path d="M 78.92649160696091 -57.24385488955412 L 82.97400399706147 -60.179437191582544" style="stroke: black; fill: gray; fill-rule: evenodd;" attrs="[object Object]"></path><path d="M 90.12773158685415 -37.19196148373963 L 94.74966654002615 -39.09924155982885" style="stroke: black; fill: gray; fill-rule: evenodd;" attrs="[object Object]"></path><path d="M 96.32736284867876 -15.076112450462317 L 101.26722761014946 -15.849246422280897" style="stroke: black; fill: gray; fill-rule: evenodd;" attrs="[object Object]"></path><path d="M 97.18133890172643 7.876380467435018 L 102.16499730694318 8.280297414482968" style="stroke: black; fill: gray; fill-rule: evenodd;" attrs="[object Object]"></path><path d="M 92.64226862678515 30.391776250863977 L 97.39315419738952 31.95032887911341" style="stroke: black; fill: gray; fill-rule: evenodd;" attrs="[object Object]"></path><path d="M 82.96204623065844 51.22059044195109 L 87.21651013992297 53.84728738769217" style="stroke: black; fill: gray; fill-rule: evenodd;" attrs="[object Object]"></path><path d="M 68.67787246029565 69.20693487163959 L 72.19981463774671 72.7560084548006" style="stroke: black; fill: gray; fill-rule: evenodd;" attrs="[object Object]"></path><path d="M 50.58244282464131 83.35266329213418 L 53.17641425154599 87.62715884557696" style="stroke: black; fill: gray; fill-rule: evenodd;" attrs="[object Object]"></path><path d="M 29.679957218992506 92.87276317348793 L 31.202006307145968 97.63546897725654" style="stroke: black; fill: gray; fill-rule: evenodd;" attrs="[object Object]"></path><path d="M 7.130392183242269 97.23891971486087 L 7.496053320844436 102.22553098228964" style="stroke: black; fill: gray; fill-rule: evenodd;" attrs="[object Object]"></path><path d="M -15.814871613356024 96.2088345000243 L -16.625890670451206 101.14262088464093" style="stroke: black; fill: gray; fill-rule: evenodd;" attrs="[object Object]"></path><path d="M -37.88249432941428 89.83967176799956 L -39.82518634630731 94.44683442276876" style="stroke: black; fill: gray; fill-rule: evenodd;" attrs="[object Object]"></path><path d="M -57.84784052564701 78.48488610248035 L -60.81439645003916 82.50975205645369" style="stroke: black; fill: gray; fill-rule: evenodd;" attrs="[object Object]"></path><path d="M -74.60293990438718 62.77460758636722 L -78.42873169435576 65.99381823182195" style="stroke: black; fill: gray; fill-rule: evenodd;" attrs="[object Object]"></path><path d="M -87.21797375557385 43.58067294078915 L -91.6906903584238 45.81557924544501" style="stroke: black; fill: gray; fill-rule: evenodd;" attrs="[object Object]"></path><path d="M -94.9928749391833 21.96824323401126 L -99.86430442324398 23.094819810114405" style="stroke: black; fill: gray; fill-rule: evenodd;" attrs="[object Object]"></path><path d="M -97.4961778801102 -0.8633068804959394 L -102.495981873962 -0.9075790282136799" style="stroke: black; fill: gray; fill-rule: evenodd;" attrs="[object Object]"></path><path d="M -94.58896260785421 -23.64694806460145 L -99.43967863902623 -24.859612067914345" style="stroke: black; fill: gray; fill-rule: evenodd;" attrs="[object Object]"></path><path d="M -86.43256407443296 -45.11830967045465 L -90.86500325773721 -47.43206914073438" style="stroke: black; fill: gray; fill-rule: evenodd;" attrs="[object Object]"></path><path d="M -73.47961892446767 -64.08584557228697 L -77.2478045103378 -67.3722991913786" style="stroke: black; fill: gray; fill-rule: evenodd;" attrs="[object Object]"></path><path d="M -56.44894657398127 -79.49695862539528 L -59.34376434700595 -83.57372573438991" style="stroke: black; fill: gray; fill-rule: evenodd;" attrs="[object Object]"></path><path d="M -36.28565856415001 -90.49641419728147 L -38.14646156743975 -95.1372559509882" style="stroke: black; fill: gray; fill-rule: evenodd;" attrs="[object Object]"></path><path d="M -14.108709908256369 -96.4738011313158 L -14.832233493295158 -101.42117554830635" style="stroke: black; fill: gray; fill-rule: evenodd;" attrs="[object Object]"></path></g></g><g></g></g><g><g><path d="M 0.001 -115 L 0.001 -105 A 105 105 0 0 1 17.434569452703663 -103.5424347212236 L 17.434569452703663 -103.5424347212236 L 17.434569452703663 -103.5424347212236 L 26.74159805175675 -106.6999856309188 L 19.095004638675437 -113.40361898038776 L 19.095004638675437 -113.40361898038776 A 115 115 0 0 0 0.001 -115" style="stroke: rgb(117, 90, 150); fill: rgb(117, 90, 150); stroke-width: 1px; fill-rule: evenodd;" attrs="[object Object]"></path></g><g><text x="13.47222291603972" y="-139.17187920751633" textLength="32.66666603088379" dy="0.5ex" style="text-anchor: middle; font: 12px &quot;Arial&quot;, sans-serif; fill: black;" attrs="[object Object]">pLacL</text><text x="13.47222291603972" y="-129.17187920751633" textLength="30.233332872390747" dy="0.5ex" style="text-anchor: middle; font: 8px &quot;Arial&quot;, sans-serif; fill: black;" attrs="[object Object]">(1 - 208)</text></g></g><g><g><path d="M 30.975468205854863 -110.74980979409435 L 28.2819492314327 -101.11939155112962 A 105 105 0 0 1 87.3132912301939 -58.321429805444104 L 87.3132912301939 -58.321429805444104 L 87.3132912301939 -58.321429805444104 L 100.7679854060637 -44.111371744747785 L 95.62884277592666 -63.87585169167688 L 95.62884277592666 -63.87585169167688 A 115 115 0 0 0 30.975468205854863 -110.74980979409435" style="stroke: rgb(41, 43, 87); fill: rgb(41, 43, 87); stroke-width: 1px; fill-rule: evenodd;" attrs="[object Object]"></path></g><g><text x="102.15505781599727" y="-103.02799305999208" textLength="28" dy="0.5ex" style="text-anchor: middle; font: 12px &quot;Arial&quot;, sans-serif; fill: black;" attrs="[object Object]">esaR</text><text x="102.15505781599727" y="-93.02799305999208" textLength="39.13333249092102" dy="0.5ex" style="text-anchor: middle; font: 8px &quot;Arial&quot;, sans-serif; fill: black;" attrs="[object Object]">(232 - 981)</text></g></g><g><g><path d="M 107.69628695324907 -40.33001086639373 L 98.33139243557524 -36.82305339975079 A 105 105 0 0 1 102.55379317523952 22.532632011600374 L 102.55379317523952 22.532632011600374 L 102.55379317523952 22.532632011600374 L 101.6329596971477 42.080179457767905 L 112.32082109669089 24.678596965086125 L 112.32082109669089 24.678596965086125 A 115 115 0 0 0 107.69628695324907 -40.33001086639373" style="stroke: rgb(66, 139, 202); fill: rgb(66, 139, 202); stroke-width: 1px; fill-rule: evenodd;" attrs="[object Object]"></path></g><g><text x="149.9838824849547" y="-8.117025349168763" textLength="25.999999523162842" dy="0.5ex" style="text-anchor: middle; font: 12px &quot;Arial&quot;, sans-serif; fill: black;" attrs="[object Object]">esaL</text><text x="149.9838824849547" y="1.882974650831236" textLength="48.033332109451294" dy="0.5ex" style="text-anchor: middle; font: 8px &quot;Arial&quot;, sans-serif; fill: black;" attrs="[object Object]">(1028 - 1663)</text></g></g><g><g><path d="M 105.93834672908643 44.744459906315356 L 96.72631657873109 40.85363730576619 A 105 105 0 0 1 89.14781317998879 55.47672850147002 L 89.14781317998879 55.47672850147002 L 97.6380811018925 60.76022645399098 A 115 115 0 0 0 105.93834672908643 44.744459906315356" style="stroke: black; fill: black; stroke-width: 1px; fill-rule: evenodd;" attrs="[object Object]"></path></g><g><text x="157.66347718401002" y="50.614674001996235" textLength="96.66666579246521" dy="0.5ex" style="text-anchor: middle; font: 12px &quot;Arial&quot;, sans-serif; fill: black;" attrs="[object Object]">Terminator R0015</text><text x="147.66347718401002" y="60.614674001996235" textLength="48.033332109451294" dy="0.5ex" style="text-anchor: middle; font: 8px &quot;Arial&quot;, sans-serif; fill: black;" attrs="[object Object]">(1620 - 1802)</text></g></g><g><g><path d="M -103.54948207037327 50.025041358877886 L -103.54948207037327 50.025041358877886 L -89.12145736336363 64.47763827428977 L -94.54517928164518 45.67503776245372 L -94.54517928164518 45.67503776245372 A 105 105 0 0 1 -103.77520696985749 -15.99082294202656 L -103.77520696985749 -15.99082294202656 L -113.65856001460581 -17.513758460314804 A 115 115 0 0 0 -103.54948207037327 50.025041358877886" style="stroke: rgb(217, 83, 79); fill: rgb(217, 83, 79); stroke-width: 1px; fill-rule: evenodd;" attrs="[object Object]"></path></g><g><text x="-146.93258445611076" y="25.79578224316404" textLength="27.33333396911621" dy="0.5ex" style="text-anchor: middle; font: 12px &quot;Arial&quot;, sans-serif; fill: black;" attrs="[object Object]">CmR</text><text x="-146.93258445611076" y="35.79578224316404" textLength="48.033332109451294" dy="0.5ex" style="text-anchor: middle; font: 8px &quot;Arial&quot;, sans-serif; fill: black;" attrs="[object Object]">(3462 - 4121)</text></g></g><g><g><path d="M -111.56646871695625 -27.891272076196582 L -101.86503665461223 -25.465944069570792 A 105 105 0 0 1 -77.8141749631072 -70.49790191779425 L -77.8141749631072 -70.49790191779425 L -85.22504876911741 -77.21198781472705 A 115 115 0 0 0 -111.56646871695625 -27.891272076196582" style="stroke: rgb(92, 184, 92); fill: rgb(92, 184, 92); stroke-width: 1px; fill-rule: evenodd;" attrs="[object Object]"></path></g><g><text x="-137.02855149545871" y="-61.82142601948656" textLength="27.999999523162842" dy="0.5ex" style="text-anchor: middle; font: 12px &quot;Arial&quot;, sans-serif; fill: black;" attrs="[object Object]">p15A</text><text x="-137.02855149545871" y="-51.82142601948656" textLength="48.033332109451294" dy="0.5ex" style="text-anchor: middle; font: 8px &quot;Arial&quot;, sans-serif; fill: black;" attrs="[object Object]">(4200 - 4615)</text></g></g></g></g><text x="0" y="0" textLength="112.9166669845581" dy="0.5ex" style="text-anchor: middle; font: 16px &quot;Arial&quot;, sans-serif; fill: black; stroke-width: 1px; stroke: black;" attrs="[object Object]">pAC-EsaR-EsaI</text><text x="0" y="20" textLength="50.583333253860474" dy="0.5ex" style="text-anchor: middle; font: 14px &quot;Arial&quot;, sans-serif; fill: black;" attrs="[object Object]">5332 bp</text></g></svg>
