<svg height="350" width="350" viewBox="0 0 450 450" preserveAspectRatio="xMidYMid meet" shape-rendering="geometricPrecision " text-rendering="optimizeLegibility" version="1.1" xmlns="http://www.w3.org/2000/svg" xmlns:xlink="http://www.w3.org/1999/xlink" attrs="[object Object]"><g transform="translate(225, 225)" attrs="[object Object]"><g><g><path d="M 135 -0.001 A 135 135 0 1 0 135 0 M 125 -0.001 A 125 125 0 1 0 125 0" style="stroke: transparent; fill: transparent; fill-rule: evenodd;" attrs="[object Object]"></path></g><g><g><g><path d="M 16.491507669028437 -133.9889181044551 L 15.269914508359664 -124.06381305968064 A 125 125 0 0 1 124.8277656162359 6.559644141115849 L 124.8277656162359 6.559644141115849 L 119.83465499158645 6.297258375471215 L 125.27272359567635 34.738231430533 L 139.8070974901842 7.34680143804975 L 134.81398686553476 7.084415672405117 A 135 135 0 0 0 16.491507669028437 -133.9889181044551" style="stroke: black; fill: black; stroke-width: 1px; fill-rule: evenodd;" attrs="[object Object]"></path></g><g><text x="88.1008040648801" y="-52.2095295686546" textLength="31.133333206176758" dy="0.5ex" style="text-anchor: middle; font: 28px &quot;Arial&quot;, sans-serif; fill: black;" attrs="[object Object]">tet</text></g></g><g><g><path d="M -87.40862766023375 102.882125806938 L -90.6459842402424 106.69257491089867 L -60.75182133969836 114.93135431164714 L -77.69655792020778 91.450778495056 L -80.93391450021643 95.26122759901668 A 125 125 0 0 1 -122.54628111297247 24.645668694119994 L -122.54628111297247 24.645668694119994 L -132.34998360201027 26.61732218964959 A 135 135 0 0 0 -87.40862766023375 102.882125806938" style="stroke: black; fill: black; fill-rule: evenodd;" attrs="[object Object]"></path></g><g><text x="-84.15575760103692" y="57.79189005644507" textLength="31.09999990463257" dy="0.5ex" style="text-anchor: middle; font: 28px &quot;Arial&quot;, sans-serif; fill: black;" attrs="[object Object]">ori</text></g></g><g><g><path d="M -130.84917513511033 -33.218870637955604 L -135.69544088085513 -34.449199180102106 L -129.93907649730644 -3.9794973334762713 L -116.31037789787584 -29.52788501151609 L -121.15664364362067 -30.758213553662593 A 125 125 0 0 1 -36.901757460857844 -119.4288922175033 L -36.901757460857844 -119.4288922175033 L -39.853898057726475 -128.98320359490356 A 135 135 0 0 0 -130.84917513511033 -33.218870637955604" style="stroke: black; fill: black; stroke-width: 1px; fill-rule: evenodd;" attrs="[object Object]"></path></g><g><text x="-68.4226809277606" y="-63.76388175880251" textLength="54.45000076293945" dy="0.5ex" style="text-anchor: middle; font: 28px &quot;Arial&quot;, sans-serif; fill: black;" attrs="[object Object]">amp</text></g></g></g></g><g><g><path d="M 147.5 -0.001 A 147.5 147.5 0 1 0 147.5 0 M 142.5 -0.001 A 142.5 142.5 0 1 0 142.5 0" style="stroke: orange; fill: orange; fill-rule: evenodd;" attrs="[object Object]"></path></g><g></g></g><g><g><path d="M 172.5 -0.001 A 172.5 172.5 0 1 0 172.5 0 M 167.5 -0.001 A 167.5 167.5 0 1 0 167.5 0" style="stroke: transparent; fill: transparent; fill-rule: evenodd;" attrs="[object Object]"></path></g><g><g><g><path d="M 6.478947129118737 -169.87649408937685 L 6.478947129118737 -169.87649408937685 A 170 170 0 0 1 7.478102768761509 -169.8354438242496 L 7.478102768761509 -169.8354438242496 L 7.478102768761509 -169.8354438242496 A 170 170 0 0 0 6.478947129118737 -169.87649408937685" style="stroke: transparent; fill: transparent; fill-rule: evenodd;" attrs="[object Object]"></path></g><g><g><text x="26.978555132980357" y="-199.85670363060729" textLength="63" dy="0.5ex" style="text-anchor: middle; font: 15px &quot;Courier New&quot;, sans-serif; stroke: blue;" attrs="[object Object]">HindIII</text><polyline points="6.9785551329803575 -169.85670363060729, 26.978555132980357 -199.85670363060729" style="text-anchor: middle; font: 15px &quot;Courier New&quot;, sans-serif; stroke: blue; fill: transparent;" attrs="[object Object]"></polyline></g></g></g><g><g><path d="M 44.17671436957267 -164.15973290520787 L 44.17671436957267 -164.15973290520787 A 170 170 0 0 1 45.14158998755732 -163.89703125253754 L 45.14158998755732 -163.89703125253754 L 45.14158998755732 -163.89703125253754 A 170 170 0 0 0 44.17671436957267 -164.15973290520787" style="stroke: transparent; fill: transparent; fill-rule: evenodd;" attrs="[object Object]"></path></g><g><g><text x="54.65934534168415" y="-184.02909154675032" textLength="45" dy="0.5ex" style="text-anchor: middle; font: 15px &quot;Courier New&quot;, sans-serif; stroke: blue;" attrs="[object Object]">EcoRV</text><polyline points="44.65934534168415 -164.02909154675032, 54.65934534168415 -184.02909154675032" style="text-anchor: middle; font: 15px &quot;Courier New&quot;, sans-serif; stroke: blue; fill: transparent;" attrs="[object Object]"></polyline></g></g></g><g><g><path d="M 86.9106722492812 -146.10453466329517 L 86.9106722492812 -146.10453466329517 A 170 170 0 0 1 87.7686020915804 -145.59077061026164 L 87.7686020915804 -145.59077061026164 L 87.7686020915804 -145.59077061026164 A 170 170 0 0 0 86.9106722492812 -146.10453466329517" style="stroke: transparent; fill: transparent; fill-rule: evenodd;" attrs="[object Object]"></path></g><g><g><text x="97.34001493838919" y="-165.84828346799955" textLength="45" dy="0.5ex" style="text-anchor: middle; font: 15px &quot;Courier New&quot;, sans-serif; stroke: blue;" attrs="[object Object]">BamHI</text><polyline points="87.34001493838919 -145.84828346799955, 97.34001493838919 -165.84828346799955" style="text-anchor: middle; font: 15px &quot;Courier New&quot;, sans-serif; stroke: blue; fill: transparent;" attrs="[object Object]"></polyline></g></g></g><g><g><path d="M 136.70890414216277 -101.04788730225364 L 136.70890414216277 -101.04788730225364 A 170 170 0 0 1 137.3009348521983 -100.2419736872354 L 137.3009348521983 -100.2419736872354 L 137.3009348521983 -100.2419736872354 A 170 170 0 0 0 136.70890414216277 -101.04788730225364" style="stroke: transparent; fill: transparent; fill-rule: evenodd;" attrs="[object Object]"></path></g><g><g><text x="147.00551208114817" y="-120.64536581175689" textLength="36" dy="0.5ex" style="text-anchor: middle; font: 15px &quot;Courier New&quot;, sans-serif; stroke: blue;" attrs="[object Object]">SalI</text><polyline points="137.00551208114817 -100.64536581175689, 147.00551208114817 -120.64536581175689" style="text-anchor: middle; font: 15px &quot;Courier New&quot;, sans-serif; stroke: blue; fill: transparent;" attrs="[object Object]"></polyline></g></g></g><g><g><path d="M -27.303301891614797 167.79311578791112 L -27.303301891614797 167.79311578791112 A 170 170 0 0 1 -28.289842153538444 167.6296060692379 L -28.289842153538444 167.6296060692379 L -28.289842153538444 167.6296060692379 A 170 170 0 0 0 -27.303301891614797 167.79311578791112" style="stroke: transparent; fill: transparent; fill-rule: evenodd;" attrs="[object Object]"></path></g><g><g><text x="-37.79669225039761" y="187.71208632634884" textLength="36" dy="0.5ex" style="text-anchor: middle; font: 15px &quot;Courier New&quot;, sans-serif; stroke: blue;" attrs="[object Object]">NdeI</text><polyline points="-27.79669225039761 167.71208632634884, -37.79669225039761 187.71208632634884" style="text-anchor: middle; font: 15px &quot;Courier New&quot;, sans-serif; stroke: blue; fill: transparent;" attrs="[object Object]"></polyline></g></g></g><g><g><path d="M -150.7265715776642 -78.62251980471801 L -150.7265715776642 -78.62251980471801 A 170 170 0 0 1 -150.26148111557032 -79.50778133588624 L -150.26148111557032 -79.50778133588624 L -150.26148111557032 -79.50778133588624 A 170 170 0 0 0 -150.7265715776642 -78.62251980471801" style="stroke: transparent; fill: transparent; fill-rule: evenodd;" attrs="[object Object]"></path></g><g><g><text x="-160.49467727468294" y="-99.0654925488296" textLength="36" dy="0.5ex" style="text-anchor: middle; font: 15px &quot;Courier New&quot;, sans-serif; stroke: blue;" attrs="[object Object]">PstI</text><polyline points="-150.49467727468294 -79.0654925488296, -160.49467727468294 -99.0654925488296" style="text-anchor: middle; font: 15px &quot;Courier New&quot;, sans-serif; stroke: blue; fill: transparent;" attrs="[object Object]"></polyline></g></g></g></g></g><g><g><path d="M 175 -0.001 A 175 175 0 1 0 175 0 M 165 -0.001 A 165 165 0 1 0 165 0" style="stroke: transparent; fill: transparent; fill-rule: evenodd;" attrs="[object Object]"></path></g><g><g><g><path d="M 170 -0.001 A 170 170 0 1 0 170 0 M 170 -0.001 A 170 170 0 1 0 170 0" style="stroke: transparent; fill: transparent; fill-rule: evenodd;" attrs="[object Object]"></path></g><g><g><path d="M 0.001 -174 L 0.001 -174" style="stroke: transparent; stroke-width: 0px; fill-rule: evenodd;" attrs="[object Object]"></path><path d="M 172.49842534146842 -22.809937630643482 L 172.49842534146842 -22.809937630643482" style="stroke: transparent; stroke-width: 0px; fill-rule: evenodd;" attrs="[object Object]"></path><path d="M 44.98406363201721 168.08460375403402 L 44.98406363201721 168.08460375403402" style="stroke: transparent; stroke-width: 0px; fill-rule: evenodd;" attrs="[object Object]"></path><path d="M -160.83287668763828 66.3986880621819 L -160.83287668763828 66.3986880621819" style="stroke: transparent; stroke-width: 0px; fill-rule: evenodd;" attrs="[object Object]"></path><path d="M -86.69225085767555 -150.86568079331315 L -86.69225085767555 -150.86568079331315" style="stroke: transparent; stroke-width: 0px; fill-rule: evenodd;" attrs="[object Object]"></path></g></g><g><text x="0.001" y="-160" textLength="5.566666603088379" dy="0.5ex" style="text-anchor: middle; font: 10px &quot;Arial&quot;, sans-serif; fill: black;" attrs="[object Object]">1</text><text x="158.61924169330428" y="-20.974655292545734" textLength="22.266666412353516" dy="0.5ex" style="text-anchor: middle; font: 10px &quot;Arial&quot;, sans-serif; fill: black;" attrs="[object Object]">1000</text><text x="41.364656213349164" y="154.56055517612324" textLength="22.266666412353516" dy="0.5ex" style="text-anchor: middle; font: 10px &quot;Arial&quot;, sans-serif; fill: black;" attrs="[object Object]">2000</text><text x="-147.892300402426" y="61.056264884764964" textLength="22.266666412353516" dy="0.5ex" style="text-anchor: middle; font: 10px &quot;Arial&quot;, sans-serif; fill: black;" attrs="[object Object]">3000</text><text x="-79.71701228292004" y="-138.72706279844888" textLength="22.266666412353516" dy="0.5ex" style="text-anchor: middle; font: 10px &quot;Arial&quot;, sans-serif; fill: black;" attrs="[object Object]">4000</text></g></g></g></g><g><g><path d="M 175 -0.001 A 175 175 0 1 0 175 0 M 165 -0.001 A 165 165 0 1 0 165 0" style="stroke: transparent; fill: transparent; fill-rule: evenodd;" attrs="[object Object]"></path></g><g><g><g><path d="M 170 -0.001 A 170 170 0 1 0 170 0 M 170 -0.001 A 170 170 0 1 0 170 0" style="stroke: transparent; fill: transparent; fill-rule: evenodd;" attrs="[object Object]"></path></g><g><g><path d="M 6.856191357951953 -169.8616867927054 L 6.856191357951953 -169.8616867927054" style="stroke: transparent; stroke-width: 0px; fill-rule: evenodd;" attrs="[object Object]"></path><path d="M 44.54116990489406 -164.06122083997596 L 44.54116990489406 -164.06122083997596" style="stroke: transparent; stroke-width: 0px; fill-rule: evenodd;" attrs="[object Object]"></path><path d="M 87.23492558088009 -145.91116392825572 L 87.23492558088009 -145.91116392825572" style="stroke: transparent; stroke-width: 0px; fill-rule: evenodd;" attrs="[object Object]"></path><path d="M 136.93297327201634 -100.74403620505414 L 136.93297327201634 -100.74403620505414" style="stroke: transparent; stroke-width: 0px; fill-rule: evenodd;" attrs="[object Object]"></path><path d="M -27.675868020447233 167.73206708711004 L -27.675868020447233 167.73206708711004" style="stroke: transparent; stroke-width: 0px; fill-rule: evenodd;" attrs="[object Object]"></path><path d="M -150.55159570002752 -78.95705815299513 L -150.55159570002752 -78.95705815299513" style="stroke: transparent; stroke-width: 0px; fill-rule: evenodd;" attrs="[object Object]"></path></g></g><g><text x="6.452885983954779" y="-159.86982286372273" textLength="11.133333206176758" dy="0.5ex" style="text-anchor: middle; font: 10px &quot;Arial&quot;, sans-serif; fill: blue;" attrs="[object Object]">29</text><text x="41.92110108695911" y="-154.4105607905656" textLength="16.699999809265137" dy="0.5ex" style="text-anchor: middle; font: 10px &quot;Arial&quot;, sans-serif; fill: blue;" attrs="[object Object]">185</text><text x="82.10345937024009" y="-137.32815428541716" textLength="16.699999809265137" dy="0.5ex" style="text-anchor: middle; font: 10px &quot;Arial&quot;, sans-serif; fill: blue;" attrs="[object Object]">375</text><text x="128.8780924913095" y="-94.81791642828625" textLength="16.699999809265137" dy="0.5ex" style="text-anchor: middle; font: 10px &quot;Arial&quot;, sans-serif; fill: blue;" attrs="[object Object]">651</text><text x="-26.047875783950335" y="157.86547490551533" textLength="22.266666412353516" dy="0.5ex" style="text-anchor: middle; font: 10px &quot;Arial&quot;, sans-serif; fill: blue;" attrs="[object Object]">2295</text><text x="-141.69561948237885" y="-74.31252532046601" textLength="22.266666412353516" dy="0.5ex" style="text-anchor: middle; font: 10px &quot;Arial&quot;, sans-serif; fill: blue;" attrs="[object Object]">3607</text></g></g></g></g><g><text x="0" y="0" textLength="101.16666603088379" dy="0.5ex" style="text-anchor: middle; font: 28px &quot;Arial&quot;, sans-serif; fill: black;" attrs="[object Object]">pBR322</text><text x="0" y="30" textLength="67.20000267028809" dy="0.5ex" style="text-anchor: middle; font: 16px &quot;Courier&quot;, monotype; fill: black;" attrs="[object Object]">4361 bp</text></g></g></svg>
