<svg height="350" width="350" viewBox="0 0 350 350" preserveAspectRatio="xMidYMid meet" shape-rendering="geometricPrecision " text-rendering="optimizeLegibility" version="1.1" xmlns="http://www.w3.org/2000/svg" xmlns:xlink="http://www.w3.org/1999/xlink" attrs="[object Object]"><g transform="translate(175, 175)" attrs="[object Object]"><g><g><path d="M 128 -0.001 A 128 128 0 1 0 128 0 M 112 -0.001 A 112 112 0 1 0 112 0" style="stroke: transparent; fill: transparent; fill-rule: evenodd;" attrs="[object Object]"></path></g><g><g><g><path d="M 141 -0.001 A 141 141 0 1 0 141 0 M 139 -0.001 A 139 139 0 1 0 139 0" style="fill: black; fill-rule: evenodd;" attrs="[object Object]"></path></g><g><g><path d="M 0.001 -141 L 0.001 -151" style="stroke: black; stroke-width: 2px; fill-rule: evenodd;" attrs="[object Object]"></path><path d="M 73.10398767900493 -120.56868161105476 L 78.28866765623933 -129.11965193807993" style="stroke: black; stroke-width: 2px; fill-rule: evenodd;" attrs="[object Object]"></path><path d="M 125.08127889299872 -65.08205336720617 L 133.95229158044543 -69.69780183296548" style="stroke: black; stroke-width: 2px; fill-rule: evenodd;" attrs="[object Object]"></path><path d="M 140.69116331793222 9.327194875573415 L 150.66926000714727 9.988698058238196" style="stroke: black; stroke-width: 2px; fill-rule: evenodd;" attrs="[object Object]"></path><path d="M 115.39506394343277 81.024559347713 L 123.57911103161949 86.77098199648697" style="stroke: black; stroke-width: 2px; fill-rule: evenodd;" attrs="[object Object]"></path><path d="M 56.54782670864277 129.16401702691547 L 60.558310872376296 138.32458561038464" style="stroke: black; stroke-width: 2px; fill-rule: evenodd;" attrs="[object Object]"></path><path d="M -18.74070242171331 139.74901099020624 L -20.069830253040497 149.66028836539817" style="stroke: black; stroke-width: 2px; fill-rule: evenodd;" attrs="[object Object]"></path><path d="M -88.5803685846047 109.70195213128878 L -94.86266422890291 117.48223242428799" style="stroke: black; stroke-width: 2px; fill-rule: evenodd;" attrs="[object Object]"></path><path d="M -132.66527491171763 47.759028807110255 L -142.07415965722953 51.14619397073509" style="stroke: black; stroke-width: 2px; fill-rule: evenodd;" attrs="[object Object]"></path><path d="M -138.17772609448988 -28.069841669594933 L -147.97756482459556 -30.060610582332163" style="stroke: black; stroke-width: 2px; fill-rule: evenodd;" attrs="[object Object]"></path><path d="M -103.51497585191962 -95.73740008155903 L -110.85646350099194 -102.52728661216605" style="stroke: black; stroke-width: 2px; fill-rule: evenodd;" attrs="[object Object]"></path><path d="M -38.75522573147845 -135.5692903223372 L -41.50382330108685 -145.18413360760934" style="stroke: black; stroke-width: 2px; fill-rule: evenodd;" attrs="[object Object]"></path></g></g><g><text x="0.001" y="-164" textLength="6" dy="0.5ex" style="text-anchor: middle; font: 10px &quot;Courier&quot;, monotype; fill: black;" attrs="[object Object]">1</text><text x="85.02875162664404" y="-140.23591336321263" textLength="18" dy="0.5ex" style="text-anchor: middle; font: 10px &quot;Courier&quot;, monotype; fill: black;" attrs="[object Object]">600</text><text x="145.48460807412616" y="-75.69827483845258" textLength="24" dy="0.5ex" style="text-anchor: middle; font: 10px &quot;Courier&quot;, monotype; fill: black;" attrs="[object Object]">1200</text><text x="163.64078570312685" y="10.848652195702412" textLength="24" dy="0.5ex" style="text-anchor: middle; font: 10px &quot;Courier&quot;, monotype; fill: black;" attrs="[object Object]">1800</text><text x="134.21837224626222" y="94.24133143989313" textLength="24" dy="0.5ex" style="text-anchor: middle; font: 10px &quot;Courier&quot;, monotype; fill: black;" attrs="[object Object]">2400</text><text x="65.77194028522989" y="150.2333247688946" textLength="24" dy="0.5ex" style="text-anchor: middle; font: 10px &quot;Courier&quot;, monotype; fill: black;" attrs="[object Object]">3000</text><text x="-21.797696433765836" y="162.5449489531477" textLength="24" dy="0.5ex" style="text-anchor: middle; font: 10px &quot;Courier&quot;, monotype; fill: black;" attrs="[object Object]">3600</text><text x="-103.02964856649058" y="127.59659680518695" textLength="24" dy="0.5ex" style="text-anchor: middle; font: 10px &quot;Courier&quot;, monotype; fill: black;" attrs="[object Object]">4200</text><text x="-154.30570982639497" y="55.549508683447385" textLength="24" dy="0.5ex" style="text-anchor: middle; font: 10px &quot;Courier&quot;, monotype; fill: black;" attrs="[object Object]">4800</text><text x="-160.71735517373293" y="-32.64861016889056" textLength="24" dy="0.5ex" style="text-anchor: middle; font: 10px &quot;Courier&quot;, monotype; fill: black;" attrs="[object Object]">5400</text><text x="-120.40039744478594" y="-111.35413910195518" textLength="24" dy="0.5ex" style="text-anchor: middle; font: 10px &quot;Courier&quot;, monotype; fill: black;" attrs="[object Object]">6000</text><text x="-45.07700014157776" y="-157.68342987846313" textLength="24" dy="0.5ex" style="text-anchor: middle; font: 10px &quot;Courier&quot;, monotype; fill: black;" attrs="[object Object]">6600</text></g></g><g><g><path d="M 23.89390872102523 -124.7320372880653 L 21.259934531305912 -110.98204892560142 A 113 113 0 0 1 70.6124161341139 -88.22067041063977 L 70.6124161341139 -88.22067041063977 L 65.61330702727398 -81.97495923112545 L 84.84316174614484 -84.86246464083814 L 84.3599661779237 -105.39637615430415 L 79.36085707108377 -99.15066497478983 A 127 127 0 0 0 23.89390872102523 -124.7320372880653" style="stroke: black; fill: violet; stroke-opacity: 0.4; stroke-width: 2px; stroke-linejoin: round; fill-rule: evenodd;" attrs="[object Object]"></path></g><g><g><path id="tpathmmsl69n191i" style="fill: none; stroke: none;" d="M 38.20933628551306 -113.7543257226756 A 120 120 0 0 1 72.67017435784342 -95.49369486411466" attrs="[object Object]"></path><text textLength="39" dy="0.5ex" style="text-anchor: start; font: 10px &quot;Courier New&quot;, monospace; stroke: black; letter-spacing: 5px;" attrs="[object Object]"><textPath xlink:href="#tpathmmsl69n191i" href="#tpathmmsl69n191i" attrs="[object Object]">pCMV</textPath></text></g></g></g><g><g><path d="M 94.17291002144721 -85.20835063591132 L 83.79164434979161 -75.81530410911795 A 113 113 0 0 1 88.81188388226666 69.86736921684388 L 88.81188388226666 69.86736921684388 L 82.5243168817522 64.92100679441246 L 85.57357600411865 84.12587645824159 L 106.1026931336814 83.4698658785303 L 99.81512613316696 78.52350345609888 A 127 127 0 0 0 94.17291002144721 -85.20835063591132" style="stroke: black; fill: red; stroke-width: 1px; fill-rule: evenodd;" attrs="[object Object]"></path></g><g><g><path id="tpath6tr4l51jfjs" style="fill: none; stroke: none;" d="M 118.78330175817322 -17.044859149513726 A 120 120 0 0 1 117.9760087818998 21.9467845456482" attrs="[object Object]"></path><text textLength="39" dy="0.5ex" style="text-anchor: start; font: 10px &quot;Courier New&quot;, monospace; stroke: white; letter-spacing: 5px;" attrs="[object Object]"><textPath xlink:href="#tpath6tr4l51jfjs" href="#tpath6tr4l51jfjs" attrs="[object Object]">CLuc</textPath></text></g></g></g><g><g><path d="M -18.024588669674646 125.71441525652114 L -16.037626139159332 111.85613325973928 A 113 113 0 0 1 -77.48033732611336 82.25446691719353 L -77.48033732611336 82.25446691719353 L -71.99500371010534 76.4311418257108 L -91.39481853291846 77.7623761554063 L -92.56500477013543 98.26861091877103 L -87.07967115412741 92.4452858272883 A 127 127 0 0 0 -18.024588669674646 125.71441525652114" style="stroke: rgb(0, 0, 102); fill: rgb(128, 128, 255); stroke-width: 2px; fill-rule: evenodd;" attrs="[object Object]"></path></g><g><g><path id="tpathcrqlnyubgzh" style="fill: none; stroke: none;" d="M -29.85476643204134 116.22690274324727 A 120 120 0 0 1 -82.3910279662694 87.24516325081531" attrs="[object Object]"></path><text textLength="60" dy="0.5ex" style="text-anchor: start; font: 10px &quot;Courier New&quot;, monospace; stroke: black;" attrs="[object Object]"><textPath xlink:href="#tpathcrqlnyubgzh" href="#tpathcrqlnyubgzh" attrs="[object Object]">aph(3')-II</textPath></text></g></g></g><g><g><path d="M -126.56043151581716 -10.55732800144791 L -134.5327421624828 -11.222356536972187 L -119.95603257422941 3.248114691696252 L -104.63657723748662 -8.728499528756146 L -112.60888788415227 -9.393528064280423 A 113 113 0 0 1 -98.68141282617279 -55.05432555785658 L -98.68141282617279 -55.05432555785658 L -110.90742857454818 -61.8752154499804 A 127 127 0 0 0 -126.56043151581716 -10.55732800144791" style="stroke: rgb(153, 153, 0); fill: rgb(255, 255, 102); stroke-width: 2px; fill-rule: evenodd;" attrs="[object Object]"></path></g><g><g><path id="tpath3186baoh5c9" style="fill: none; stroke: none;" d="M -119.33286670468794 -12.635937798247474 A 120 120 0 0 1 -111.60271239660318 -44.100278748791084" attrs="[object Object]"></path><text textLength="32.40000057220459" dy="0.5ex" style="text-anchor: start; font: 18px &quot;Courier New&quot;, monospace; stroke: rgb(20, 31, 31);" attrs="[object Object]"><textPath xlink:href="#tpath3186baoh5c9" href="#tpath3186baoh5c9" attrs="[object Object]">oRi</textPath></text></g></g></g><g><g><path d="M -90.83142841896351 -88.76176886120909 L -96.55309320126042 -94.35306138789943 L -94.5351409395277 -73.91283466045418 L -75.096850267647 -73.38571441281067 L -80.81851504994391 -78.97700693950101 A 113 113 0 0 1 7.603229617487968 -112.74391734982315 L 7.603229617487968 -112.74391734982315 L 8.54522266744223 -126.71219029581894 A 127 127 0 0 0 -90.83142841896351 -88.76176886120909" style="stroke: rgb(51, 77, 77); fill: rgb(117, 163, 163); stroke-width: 2px; fill-rule: evenodd;" attrs="[object Object]"></path></g><g><g><path id="tpathzcc0zq0oul" style="fill: none; stroke: none;" d="M -67.84888593394535 -98.97741498706901 A 120 120 0 0 1 -28.402397189053044 -116.5903247869019" attrs="[object Object]"></path><text textLength="43.20000076293945" dy="0.5ex" style="text-anchor: start; font: 18px &quot;Courier New&quot;, monospace; stroke: rgb(20, 31, 31);" attrs="[object Object]"><textPath xlink:href="#tpathzcc0zq0oul" href="#tpathzcc0zq0oul" attrs="[object Object]">ampR</textPath></text></g></g></g></g></g><g><text x="0" y="0" textLength="118.91666555404663" dy="0.5ex" style="text-anchor: middle; font: 20px &quot;Arial&quot;, sans-serif; fill: black;" attrs="[object Object]">pCMV-Cluc 2</text><text x="0" y="20" textLength="67.20000267028809" dy="0.5ex" style="text-anchor: middle; font: 16px &quot;Courier&quot;, monotype; fill: black;" attrs="[object Object]">6905 bp</text></g></g></svg>
